<?xml version="1.0" encoding="utf-8"?>
<svg xmlns="http://www.w3.org/2000/svg" width="294" height="294" viewBox="74.5 0 294 294">
  <defs>
    <clipPath id="rounded-corners">
      <rect x="74.5" y="0" width="294" height="294" rx="24" ry="24"/>
    </clipPath>
  </defs>
  <g clip-path="url(#rounded-corners)">
 <g fill="#9aaec5">
  <path d="M0 147 l0 -147 221.5 0 221.5 0 0 147 0 147 -221.5 0 -221.5 0 0 -147z m209.2 134.1 c4.9 -3.1 9.3 -9.5 10.4 -14.9 1.9 -9.2 -5 -18.4 -15.2 -20.6 -2.6 -0.6 -3.7 -0.2 -6 1.9 -1.6 1.5 -4.1 2.9 -5.6 3.2 -2 0.4 -2.8 1.2 -2.8 2.7 0 1.1 -0.9 4.3 -2.1 7.1 -1.8 4.4 -1.9 5.6 -0.9 9.3 1.2 4.5 7 11.8 10.5 13.2 3.7 1.6 7.1 1 11.7 -1.9z m158.2 -24.1 c13.9 -2.2 23.6 -7.3 23.6 -12.1 0 -7.5 -29.1 -26.7 -81.2 -53.7 -11.4 -5.9 -20.8 -11.3 -20.8 -11.9 0 -0.8 -1.4 -1.3 -3.5 -1.3 -3.3 0 -3.5 -0.2 -3.5 -3.5 0 -3.2 0.2 -3.5 3 -3.5 1.7 0 3 -0.4 3 -1 0 -0.5 0.7 -1 1.5 -1 0.8 0 1.5 -0.4 1.5 -1 0 -0.5 1.1 -1.2 2.5 -1.6 1.4 -0.3 2.5 -1 2.5 -1.5 0 -0.5 0.7 -0.9 1.5 -0.9 0.8 0 1.5 -0.4 1.5 -1 0 -0.5 0.9 -1 2 -1 1.1 0 2 -0.7 2 -1.5 0 -0.8 0.7 -1.5 1.5 -1.5 0.8 0 1.5 -0.4 1.5 -1 0 -0.5 0.7 -1 1.5 -1 0.8 0 1.5 -0.4 1.5 -1 0 -0.5 0.9 -1 2 -1 1.1 0 2 -0.7 2 -1.5 0 -0.8 0.7 -1.5 1.5 -1.5 0.8 0 1.5 -0.4 1.5 -1 0 -0.5 0.9 -1 2 -1 1.1 0 2 -0.7 2 -1.5 0 -0.8 0.6 -1.5 1.4 -1.5 0.8 0 1.6 -0.7 2 -1.5 0.3 -0.8 1.2 -1.5 2.1 -1.5 0.8 0 1.5 -0.4 1.5 -1 0 -0.5 0.9 -1 2 -1 1.1 0 2 -0.7 2 -1.5 0 -0.8 0.9 -1.5 2 -1.5 1.1 0 2 -0.7 2 -1.5 0 -0.8 0.8 -1.5 1.9 -1.5 1 0 2.1 -0.9 2.4 -2 0.3 -1.2 1.4 -2 2.6 -2 1.2 0 2.1 -0.6 2.1 -1.5 0 -0.9 0.9 -1.5 2.5 -1.5 1.8 0 2.5 -0.5 2.5 -2 0 -1.6 0.7 -2 3.3 -2.1 2.1 -0.1 2.5 -0.3 1.2 -0.6 -1.1 -0.3 -2.2 -0.9 -2.5 -1.3 -0.3 -0.4 -3.1 -1 -6.2 -1.4 -4.6 -0.6 -5.8 -0.5 -5.8 0.6 0 1.5 -18 10.1 -43.5 20.8 -19.6 8.2 -30.6 12.4 -54.5 20.7 -10.2 3.5 -17.1 6.1 -15.5 5.7 9.1 -1.9 18.5 -3.3 21.8 -3.4 3.5 0 3.7 0.1 3.7 3.4 l0 3.3 -6.1 0.7 c-5.4 0.6 -14.6 2.8 -28.9 6.8 -2.5 0.7 -5.1 1.8 -5.8 2.5 -0.7 0.7 -2.2 1.3 -3.3 1.3 -1 0 -1.9 0.3 -1.9 0.8 0 0.4 -2 1.8 -4.5 3.1 -5.1 2.7 -12.1 9.2 -13 12.2 -0.5 1.4 -1.6 1.9 -4.1 1.9 -3.2 0 -3.4 -0.2 -3.4 -3.4 0 -1.9 0.7 -4.1 1.5 -5 0.8 -0.8 1.5 -1.9 1.5 -2.3 0 -1.3 5.4 -6.3 6.8 -6.3 0.7 0 1.2 -0.4 1.2 -1 0 -1 7.2 -5 9 -5 0.6 0 1.8 -0.7 2.6 -1.5 0.9 -0.8 2.6 -1.5 4 -1.5 1.3 0 2.4 -0.4 2.4 -0.9 0 -0.4 1.5 -1.3 3.3 -1.9 4.6 -1.7 0.5 -0.7 -19.3 4.3 -18.4 4.7 -40.1 9.2 -58.2 12.1 l-10.8 1.7 0 5.9 0 5.8 -3.5 0 -3.5 0 0 -7 c0 -4 0.4 -7 1 -7 0.6 0 1 -1.1 1 -2.5 0 -2.1 0.5 -2.5 2.8 -2.5 1.5 0 9 -1.1 16.7 -2.5 61.1 -10.9 119.3 -29.6 179.8 -57.6 8.2 -3.8 15.7 -6.9 16.8 -6.9 1.1 0 1.9 -0.7 1.9 -1.6 0 -1.4 1 -1.6 6.6 -1.2 3.6 0.2 6.8 0.9 7.2 1.4 0.4 0.6 2.8 1.4 5.4 1.7 2.6 0.4 5.6 1.1 6.5 1.6 3.9 2 26.1 5.6 34.8 5.6 7.7 0 9.8 -0.4 14.8 -2.7 3.1 -1.5 5.7 -3.2 5.7 -3.7 0 -1.5 -8.6 -6.2 -24.2 -13.3 l-13.8 -6.2 0 -5.5 c0 -3.1 0.5 -13.5 1.1 -23.1 1.4 -21.6 0.2 -41.3 -2.6 -45.6 -1.1 -1.7 -2 -2.3 -2.3 -1.6 -0.2 0.6 -1 1.2 -1.7 1.2 -0.9 0 -1.6 2.1 -2.1 6.7 -0.3 3.8 -1 7 -1.3 7.3 -0.6 0.4 -4.2 22.4 -7.5 45.8 l-1 7.2 -3.3 0 c-3.1 0 -3.3 -0.2 -3.3 -3.5 0 -1.9 1.6 -13 3.5 -24.6 1.9 -11.7 3.5 -22.2 3.5 -23.5 0 -1.2 0.4 -2.4 0.8 -2.6 0.5 -0.2 1.2 -2.8 1.5 -5.8 l0.7 -5.5 -4.9 0.1 c-2.7 0.1 -5.4 0.5 -5.9 0.8 -0.5 0.3 -0.7 2.6 -0.4 5.1 0.4 3.7 0.2 4.5 -1.2 4.5 -1 0 -1.6 0.9 -1.6 2.5 0 2.5 -3 9.8 -4.2 10.3 -0.5 0.2 -0.8 1.1 -0.8 2 0 2.4 -7.2 20.2 -8.2 20.2 -0.4 0 -0.8 0.9 -0.8 2 0 2.9 -2.1 7 -3.7 7 -0.7 0 -1.3 1.1 -1.3 2.5 0 2.2 -0.4 2.5 -3.5 2.5 -3.3 0 -3.5 -0.2 -3.5 -3.5 0 -2.6 0.4 -3.5 1.8 -3.6 0.9 -0.1 -3.5 -1 -9.8 -2 -11.9 -2 -17.5 -1.8 -20.7 0.7 -1.7 1.3 -1.6 1.6 2 4.8 2.8 2.5 3.7 4.1 3.7 6.5 l0 3.1 -11.9 0 -11.8 0 -0.6 -11.7 c-0.3 -7.7 -1.3 -14.4 -2.7 -19.3 -2.5 -8.4 -2.3 -18.1 0.5 -25.9 0.8 -2.4 1.5 -4.5 1.5 -4.7 0 -0.1 -2.5 0 -5.5 0.3 -5.2 0.5 -5.5 0.5 -5.5 -1.7 0 -1.7 -0.4 -2.1 -1.7 -1.7 -1 0.3 -6.3 1.7 -11.8 3.2 -11.3 3.1 -21.9 7.6 -25.2 10.7 -1.8 1.7 -2.3 3.3 -2.3 7.2 0 7 -0.9 9.6 -3.1 9.6 -1.4 0 -1.9 0.7 -1.9 3 0 2.5 -0.4 3 -2.5 3 -1.6 0 -2.5 0.6 -2.5 1.5 0 0.8 -0.5 1.5 -1.1 1.5 -0.6 0 -2.5 1 -4.2 2.2 l-3.2 2.3 7 1.2 c3.9 0.6 8.7 1.2 10.8 1.2 3.6 0.1 3.7 0.2 3.7 3.7 l0 3.6 -4.8 -0.4 -4.7 -0.3 0.4 3.4 c0.2 2.1 -0.2 3.6 -1 4.2 -0.9 0.6 -0.1 0.9 2.5 0.9 7 0 27 -6.7 28.9 -9.7 0.4 -0.7 2.4 -1.3 4.2 -1.3 3.3 0 3.5 0.2 3.5 3.5 0 2.5 -0.5 3.8 -1.7 4.2 -2.9 1.1 -4.3 3 -4.3 5.7 0 2 -0.5 2.6 -2.1 2.6 -3.3 0 -15.3 3.4 -16.7 4.7 -0.7 0.6 -2.8 1.7 -4.7 2.4 -1.9 0.7 -3.5 1.7 -3.5 2.1 0 0.4 -0.6 0.8 -1.4 0.8 -0.8 0 -1.6 0.7 -2 1.5 -0.3 0.8 -1.8 1.5 -3.3 1.5 l-2.7 0 2.2 1.6 c1.2 0.8 2.2 2.1 2.2 2.7 0 0.9 2.7 1.1 9.7 0.9 8 -0.3 10.1 -0.7 11.6 -2.3 0.9 -1 1.7 -2.3 1.7 -2.9 0 -0.5 0.7 -1 1.5 -1 0.8 0 1.5 -0.9 1.5 -2 0 -1.5 0.7 -2 2.9 -2 2.6 0 3 -0.4 3.3 -3.2 0.3 -3 0.7 -3.4 4.3 -3.9 2.2 -0.3 3.4 -0.7 2.8 -0.8 -0.8 0 -1.3 -1.5 -1.3 -3.6 0 -3.4 0.1 -3.5 3.9 -3.5 2.1 0 5.3 0.3 7 0.6 2.8 0.6 3.1 1 3.1 4.3 0 3.3 -0.4 3.8 -3.3 4.9 -1.8 0.7 -4.5 1.2 -6 1.2 -1.9 0 -2.6 0.6 -2.9 2.3 -0.2 1.7 -1.1 2.3 -3.5 2.5 -2.9 0.3 -3.3 0.7 -3.3 3.3 0 1.9 -0.5 2.9 -1.5 2.9 -0.8 0 -1.5 0.9 -1.5 2 0 1.1 -0.4 2 -0.8 2 -0.4 0 -1.3 1.4 -1.9 3 l-1.1 3 -9.4 0 c-6.6 0.1 -9.9 0.5 -11.2 1.5 -1.1 0.8 -2.8 1.5 -3.8 1.5 -1 0 -1.8 0.6 -1.8 1.3 0 2.8 2.2 8.7 3.2 8.7 0.6 0 3.7 1 6.9 2.1 5.6 2.1 5.9 2.3 5.9 5.5 0 2.4 -0.5 3.4 -1.5 3.4 -0.9 0 -1.5 0.9 -1.5 2.4 0 1.9 -0.6 2.4 -3.7 3 -2.1 0.3 -5 0.6 -6.5 0.6 -2.5 0 -2.8 -0.3 -2.8 -3.5 0 -3.3 0.2 -3.5 3.3 -3.6 l3.2 0 -4 -1.6 c-2.2 -0.9 -4.1 -1.9 -4.2 -2.2 -0.2 -0.3 -3.9 -0.5 -8.3 -0.3 l-8 0.4 0 2.9 c0 2.7 -0.3 2.9 -3.6 2.9 -2.7 0 -3.7 -0.5 -4.1 -1.9 -0.3 -1.1 -1.3 -2.1 -2.3 -2.4 -1.6 -0.4 -1.7 0.2 -1.2 6.1 l0.5 6.5 -5.4 -0.7 c-11.9 -1.4 -27.3 -7.1 -37.4 -13.9 -8.7 -5.8 -23.7 -13.3 -29.5 -14.8 -3.7 -0.9 -5 -1.8 -5 -3.1 0 -1 -0.7 -1.8 -1.5 -1.8 -0.9 0 -9.5 -2.5 -19.1 -5.5 -31.6 -10 -35.5 -10.8 -48.9 -10.9 -9.2 -0.1 -13.2 0.3 -17.2 1.7 -5.9 2.1 -10.3 5.2 -10.3 7.3 0 0.8 2.1 3.7 4.6 6.4 l4.5 4.8 3.4 -1.4 c1.9 -0.8 5 -1.4 7 -1.4 2.9 0 3.5 0.4 3.6 2.3 l0.2 2.2 0.4 -2.2 c0.4 -1.9 1.1 -2.3 4.1 -2.3 4 0 12.2 2.8 12.2 4.1 0 0.5 0.7 0.9 1.5 0.9 0.8 0 1.5 0.5 1.5 1 0 0.6 0.5 1 1.2 1 1.6 0 7.8 6 7.8 7.6 0 0.8 1.4 1 4.5 0.6 l4.5 -0.5 0 3.6 c0 1.9 -0.5 3.7 -1 3.9 -1.1 0.3 0.8 6.5 2.6 8.5 3.5 3.7 9.7 26.4 11 40.2 0.6 6.2 0.5 7.1 -1 7.1 -1.3 0 -1.6 1.1 -1.6 5.5 0 4.4 0.3 5.5 1.6 5.5 1.5 0 1.6 1 1 8.1 -0.4 4.4 -1.4 10.3 -2.2 13.1 -0.9 2.7 -1.3 5.2 -1 5.5 0.3 0.4 3.9 0.8 8.1 1.1 7.4 0.5 7.5 0.4 7.5 -2 0 -1.4 1.2 -3.4 3 -4.8 1.6 -1.4 2.9 -3.1 3 -3.7 0 -0.7 0.5 -1.3 1 -1.3 0.6 0 1 -0.7 1 -1.5 0 -0.8 0.3 -1.5 0.8 -1.5 0.4 0 1.6 -3.6 2.6 -8 l1.9 -8 3.4 0 c2.9 0 3.3 0.3 3.3 2.8 0 3.9 -2.9 14.6 -4 15 -0.6 0.2 -1 1.5 -1 2.8 0 1.3 -0.4 2.4 -1 2.4 -0.5 0 -1 0.7 -1 1.5 0 0.8 -0.4 1.5 -1 1.5 -0.5 0 -1 0.6 -1 1.3 0 0.7 -1.3 2.4 -3 3.7 -3.4 2.9 -3.7 4.8 -1.4 9.3 5.6 11.1 14.3 13.4 22.6 5.9 5.5 -4.9 7.8 -10.3 7.1 -16.3 l-0.5 -4.6 7.4 -0.7 c9.3 -0.8 28.5 -4.8 39.4 -8.1 8.2 -2.5 10.8 -4.5 5.9 -4.5 -2.2 0 -2.5 -0.4 -2.5 -3.5 0 -3.3 0.2 -3.5 3.5 -3.5 1.9 0 3.5 0.5 3.5 1 0 0.6 0.7 1 1.6 1 4.2 0 9.5 2.4 10 4.5 0.5 2 1.1 2.2 4.9 1.8 3.6 -0.5 10.1 1.4 40.1 11.5 51.3 17.3 77.9 24.9 97.4 27.7 11.1 1.7 10.6 1.6 17.4 0.5z m-305.8 -8 c3.4 -1.3 10.1 -6.6 11.4 -9 0.8 -1.5 0.1 -2.1 -5 -3.9 -3.3 -1.2 -6 -2.6 -6 -3 0 -0.5 -0.9 -1.1 -2 -1.4 -1.5 -0.4 -2 -1.4 -2 -3.6 0 -2.8 -0.3 -3.1 -3 -3.1 -2 0 -3.3 -0.6 -3.7 -1.7 -0.4 -1 -1 -2 -1.3 -2.3 -1.2 -0.8 -5 -8.8 -5 -10.3 0 -0.9 -1.3 -1.7 -2.9 -1.9 -2.5 -0.4 -2.8 -0.2 -2.1 1.2 0.5 0.9 1.6 2.2 2.4 3 0.9 0.7 1.6 2.8 1.6 4.6 0 3 -0.3 3.4 -2.7 3.4 l-2.8 0 3.3 2.6 c2.5 2 3.2 3.3 3.2 6 l0 3.4 -5 0 c-4.7 0 -5.4 -0.3 -9.9 -4.8 -5.2 -5.2 -8.1 -11.8 -8.1 -18.4 0 -3.7 0.1 -3.8 3.4 -3.8 2.1 0 3.6 -0.6 4 -1.5 0.3 -0.8 0.1 -1.5 -0.5 -1.5 -2 0 -3.9 -2.9 -3.9 -5.9 0 -2.8 0.3 -3.1 3.3 -3.1 2.1 0 3.8 0.7 4.7 2 0.8 1.1 2 2 2.7 2 0.7 0 1.3 0.4 1.3 0.8 0 0.5 2.2 1.5 5 2.2 2.8 0.7 5 1.9 5 2.5 0 0.8 1.7 1 5.4 0.7 5.1 -0.4 5.5 -0.3 7.2 2.4 1 1.6 5.1 6.4 9.1 10.7 4 4.3 7.3 8.5 7.3 9.4 0 0.8 0.7 1.3 1.8 1.1 1.5 -0.3 1.8 -2.3 2.6 -16.3 0.7 -11.6 0.6 -18 -0.3 -23.5 -1.8 -11.1 -1.8 -11 -5.7 -11 -2.2 0 -3.7 -0.6 -4 -1.5 -0.4 -0.9 -1.9 -1.5 -3.9 -1.5 -2.9 0 -3.7 -0.6 -6.2 -4.7 -1.5 -2.7 -3.1 -5.5 -3.4 -6.3 -0.6 -1.4 -1.2 -0.4 -3.4 5.7 -0.2 0.7 -1.7 1.5 -3.2 1.9 -1.5 0.4 -3.1 1.1 -3.4 1.6 -0.3 0.5 -2.8 1.1 -5.5 1.4 l-4.9 0.6 -3 -5.8 c-1.6 -3.2 -3.8 -6.7 -4.7 -7.8 -1 -1.1 -1.8 -2.8 -1.8 -3.8 0 -1 -0.6 -1.8 -1.4 -1.8 -0.8 0 -2.6 -1.4 -4 -3 l-2.5 -3.1 -0.7 2.5 c-0.8 3.5 2.9 9.5 11 17.7 5.3 5.4 6.6 7.3 6.6 9.8 0 2.1 -0.5 3.1 -1.5 3.1 -0.8 0 -1.5 0.9 -1.5 2 0 1.1 -0.7 2 -1.5 2 -1 0 -1.5 1.1 -1.5 3.5 0 3.3 -0.2 3.5 -3.5 3.5 -3.4 0 -3.5 -0.1 -3.5 -4 0 -2.9 0.4 -4 1.5 -4 1 0 1.5 -1 1.5 -3.4 0 -2.7 -0.9 -4.3 -4.9 -8.1 -2.7 -2.6 -5.5 -5.8 -6.2 -7.1 -2.6 -4.9 -3.2 -2.5 -2.7 10.4 1.3 32.2 15 59.6 35.2 70.1 6.1 3.3 9.7 3.8 14.2 2.1z m-16.8 -100.9 c2.9 -1.9 1.5 -5.2 -2.6 -6.5 -1.2 -0.4 -2.2 -1.2 -2.2 -1.7 0 -0.5 -0.7 -0.9 -1.5 -0.9 -0.8 0 -2.4 -0.9 -3.5 -2 -1.1 -1.1 -2.4 -2 -3 -2 -0.5 0 -1 -0.4 -1 -1 0 -0.5 -0.6 -1 -1.4 -1 -0.8 0 -1.7 -0.6 -2 -1.2 -0.5 -1.5 -4.7 2.9 -7.2 7.5 -1.4 2.6 -1.4 2.7 1.1 2.7 1.4 0 2.5 0.5 2.5 1 0 0.6 0.5 1 1.2 1 1.9 0 5.8 4.2 5.8 6.2 0 1 0.7 1.8 1.5 1.8 0.9 0 2.1 1.2 2.8 2.8 0.6 1.5 1.9 3.5 2.7 4.4 1.3 1.6 1.6 1.2 3.6 -4.4 1.3 -3.3 2.7 -6.4 3.2 -6.7z m147.2 -22.6 c0 -2 -0.5 -2.5 -2.6 -2.5 -2.4 0 -2.6 -0.3 -2.2 -4 0.4 -4.1 0.4 -4.1 -2.7 -3.4 -1.6 0.3 -3.1 0.8 -3.3 0.9 -0.2 0.1 0.9 2.8 2.5 5.9 2.3 4.8 3.1 5.6 5.5 5.6 2.3 0 2.8 -0.4 2.8 -2.5z m-35.5 -10.2 c8.8 -2.2 10.2 -2.9 9.7 -4.5 -0.2 -1 -1.1 -1.8 -1.8 -1.8 -0.8 0 -1.7 -0.7 -2 -1.5 -0.4 -0.8 -1.2 -1.5 -2 -1.5 -0.8 0 -1.4 -0.4 -1.4 -0.8 0 -1.1 -11.8 -5.2 -14.7 -5.2 -2.7 0 -10.5 3 -11.4 4.3 -0.4 0.5 -2.2 0.8 -4 0.6 -3.4 -0.4 -3.4 -0.4 -3 3.3 0.2 2.5 -0.1 3.8 -0.9 3.8 -3 0 0 3.4 4.5 5.1 6.3 2.3 12.9 1.9 27 -1.8z m35.1 -7.6 c0.8 -0.4 1.4 -1.4 1.4 -2.2 0 -0.8 1.3 -1.5 3.3 -1.7 l3.2 -0.3 -0.1 -6.7 c0 -3.8 -0.4 -7.1 -0.8 -7.5 -1.3 -1.3 -11.8 4.9 -13.7 8.1 -2.4 3.9 -2.4 3.9 0.6 7.4 1.4 1.7 2.5 4.3 2.6 5.8 l0 2.9 1 -2.5 c0.6 -1.4 1.7 -2.8 2.5 -3.3z m22.1 -3.4 c-0.3 -1 -0.8 -3.6 -1.2 -5.8 -1.6 -9.9 -3.5 -10.3 -3.5 -0.6 0 4.6 -0.4 7.1 -1.2 7.4 -0.7 0.3 0.4 0.6 2.5 0.6 3.2 0.1 3.8 -0.2 3.4 -1.6z"/>
  <path d="M204 273.5 c0 -3.3 0.2 -3.5 3.5 -3.5 3.3 0 3.5 0.2 3.5 3.5 0 3.3 -0.2 3.5 -3.5 3.5 -3.3 0 -3.5 -0.2 -3.5 -3.5z"/>
  <path d="M122 233.5 l0 -3.5 7 0 7 0 0 3.5 0 3.5 -7 0 -7 0 0 -3.5z"/>
  <path d="M180 206.5 c0 -3.3 0.2 -3.5 3.5 -3.5 3.3 0 3.5 0.2 3.5 3.5 0 3.3 -0.2 3.5 -3.5 3.5 -3.3 0 -3.5 -0.2 -3.5 -3.5z"/>
  <path d="M273 173 c-0.8 -0.5 -5.7 -1 -10.7 -1 l-9.3 0 0 -3.5 0 -3.5 10.9 0 c5.9 0 12.2 0.5 14 1.1 2.7 0.9 3.1 1.6 3.1 4.5 0 3.2 -0.2 3.4 -3.2 3.4 -1.8 0 -4 -0.5 -4.8 -1z"/>
  <path d="M199 147.5 c0 -3.3 0.2 -3.5 3.5 -3.5 3.3 0 3.5 0.2 3.5 3.5 0 3.3 -0.2 3.5 -3.5 3.5 -3.3 0 -3.5 -0.2 -3.5 -3.5z"/>
  <path d="M317 90.6 c0 -1.9 0.5 -3.8 1.1 -4.1 0.6 -0.4 3.5 -0.4 6.5 0 5.4 0.6 5.4 0.7 5.4 4.1 l0 3.4 -6.5 0 -6.5 0 0 -3.4z"/>
  <path d="M335 89.5 l0 -3.5 8 0 8 0 0 3.5 0 3.5 -8 0 -8 0 0 -3.5z"/>
  <path d="M258 73.9 c0 -1.7 0.5 -3.9 1 -5 0.8 -1.5 0.7 -2.3 -0.5 -3.5 -0.8 -0.8 -1.5 -1.1 -1.5 -0.5 0 0.6 -0.7 1.1 -1.5 1.1 -0.8 0 -1.5 0.7 -1.5 1.5 0 1.2 -1.3 1.5 -6.1 1.5 -6.3 0 -8.1 -0.9 -9.3 -4.8 -0.8 -2.5 -2.6 -3 -2.6 -0.7 0 0.8 0.5 1.5 1 1.5 1.1 0 1.4 4.9 0.4 7.4 -0.4 1 -1.8 1.6 -3.9 1.6 -3.3 0 -3.4 -0.1 -4 -5.5 -1 -7.3 -0.2 -17.8 1.3 -18.3 0.7 -0.2 1.2 -1.1 1.2 -2.1 0 -2.2 1.9 -4.1 4.1 -4.1 1 0 1.9 -0.5 2.1 -1.1 0.2 -0.6 2.6 -1.4 5.3 -1.6 10.6 -1 19.5 4 19.5 11.1 0 3.2 -0.3 3.6 -2.6 3.6 -2.3 0 -2.4 0.2 -1 1.5 0.8 0.8 2.4 1.5 3.5 1.5 1.4 0 2.1 0.6 2.1 2 0 1.1 0.5 2 1 2 1.3 0 1.3 5.5 -0.1 10.3 -0.9 3.4 -1.3 3.7 -4.4 3.7 -3.2 0 -3.5 -0.2 -3.5 -3.1z"/>
  <path d="M62 197.5 c0 -3.3 0.2 -3.5 3.5 -3.5 3.3 0 3.5 0.2 3.5 3.5 0 3.3 -0.2 3.5 -3.5 3.5 -3.3 0 -3.5 -0.2 -3.5 -3.5z"/>
 </g>
 <g fill="#559bd1">
  <path d="M197.7 275.2 c-3.6 -4 -1.5 -18.9 2.8 -20.6 3.3 -1.2 12.3 -0.6 13.9 1 2.6 2.5 2.2 15.4 -0.5 18.8 -1.8 2.3 -2.7 2.6 -8.3 2.6 -4.8 0 -6.7 -0.4 -7.9 -1.8z"/>
  <path d="M356.5 257.3 c-14.3 -1 -37.1 -6.9 -75.5 -19.6 -21.1 -7 -83.2 -28.9 -93.2 -32.9 -2.4 -0.9 -2.8 -1.6 -2.8 -5.1 0 -3.5 0.6 -4.6 4.5 -8.3 12.7 -12.2 45.1 -21.4 75.5 -21.4 l10.8 0 20.9 10.6 c53.9 27.5 84.1 45.6 93.1 55.9 2.7 3 3.2 4.4 3.2 8.5 0 5.4 -1.4 7.4 -6.6 9.6 -3.2 1.3 -19 3.5 -22.9 3.2 -1.1 -0.1 -4.2 -0.3 -7 -0.5z"/>
  <path d="M87.9 235.6 c-0.2 -0.2 -3.4 -0.7 -7 -1 -8.7 -0.7 -11 -1.7 -13.3 -5.6 l-1.8 -3.2 2.6 1.7 c5.7 3.8 4.3 0.4 -3.3 -7.8 -6.4 -6.9 -8.1 -9.3 -8.1 -11.7 0 -3 0 -3 -6 -3 -7 0 -18.6 -3.9 -21.2 -7.1 -2.2 -2.6 -2.4 -11.5 -0.4 -14.2 1.3 -1.7 1 -2.2 -2.7 -5.5 -11.2 -10.1 -15.1 -16.3 -15.1 -24.2 0 -3 0.5 -6.7 1.2 -8.2 1 -2.6 1.6 -2.8 6.5 -2.8 4.9 0 5.6 0.3 9.4 4.3 4.7 4.7 13.3 18.2 13.3 20.7 0 2.6 1.1 3 4.1 1.5 3.7 -2 7.9 -1.9 10.8 0.1 3.8 2.7 7.1 11 7.1 18.2 0 6.1 0 6.2 2.8 6.2 2 0 4.2 1.5 8.4 5.8 3.1 3.1 6.5 7.2 7.6 9.1 1.9 3.2 2.1 3.2 3.1 1.3 2.2 -4.1 4.2 -15.4 3.5 -20.1 -0.7 -5.4 -3 -14 -5 -18.8 -0.8 -1.8 -1.3 -3.4 -1.2 -3.5 0.1 -0.2 -1.5 -2.1 -3.5 -4.3 -2 -2.2 -3.7 -4.4 -3.7 -4.9 0 -0.4 -2 -4.4 -4.5 -8.8 -2.5 -4.4 -4.5 -9.1 -4.5 -10.4 0 -1.8 -0.5 -2.4 -2.1 -2.4 -1.2 0 -4.2 -1.8 -6.6 -4.1 -2.4 -2.2 -6.9 -5.2 -9.9 -6.5 -4.7 -2.1 -6.5 -2.3 -11.8 -1.8 -5.6 0.6 -6.7 0.4 -10.2 -1.8 -2.1 -1.4 -5.4 -3.9 -7.1 -5.6 -2.9 -2.6 -3.3 -3.6 -3.3 -8.2 l0 -5.1 4.8 -2.1 c3.9 -1.8 7.2 -2.2 19.5 -2.6 17.3 -0.5 20.4 0 45.7 7.3 27.2 8 26 7.5 26 10 0 2 0.7 2.3 5.8 2.8 7 0.6 18.5 5.5 31 13.1 24 14.5 39.9 19.1 58.3 16.6 14.1 -1.9 33.8 -6.9 27.6 -7 -2.8 0 -17 -5 -18.5 -6.4 -0.8 -0.8 -1.1 -2.3 -0.6 -4 0.5 -2.1 0.9 -2.4 1.5 -1.4 1.6 2.4 1 -1.1 -0.7 -4.3 -0.9 -1.8 -1.2 -3.8 -0.8 -4.7 0.4 -1 0.8 -2.1 0.8 -2.7 0.1 -0.5 1.3 -1 2.8 -1 1.6 -0.1 3.3 -0.6 4 -1.3 0.9 -0.9 0.4 -1.2 -2.2 -1.2 -3.2 0 -3.3 -0.1 -1.4 -1.4 1.3 -1 5.7 -1.5 13.7 -1.8 6.4 -0.1 12.2 -0.7 12.9 -1.3 0.8 -0.5 2.2 -3 3.3 -5.5 1.1 -2.5 3.5 -6.5 5.3 -8.9 l3.4 -4.4 -8 0.7 -8 0.7 0.1 -3.7 c0.2 -3.4 0.6 -4 4.7 -6 2.5 -1.3 5.1 -2.2 5.7 -1.9 0.7 0.2 1.6 -0.2 2 -0.9 0.5 -0.7 2.9 -2.5 5.4 -3.9 2.5 -1.5 6.7 -4.6 9.3 -7.1 l4.8 -4.4 -2.2 -1.5 c-1.8 -1.2 -2.2 -2.3 -1.8 -5.2 0.3 -2.9 0.1 -3.4 -1.1 -2.8 -0.9 0.3 -3.9 0.8 -6.7 1.1 -4.6 0.3 -5.1 0.2 -6.2 -2.2 -1.6 -3.5 -6.9 -6.6 -11.2 -6.6 -3.3 0 -12.1 4.4 -11.8 5.9 0.1 0.3 -0.5 1.8 -1.2 3.4 -1.4 2.8 -3.9 3.4 -8.8 2.1 -1.9 -0.5 -2.3 -1.3 -2.1 -3.8 0.2 -1.7 0.7 -3.6 1.2 -4.3 1 -1.3 -1.9 -6.3 -3.6 -6.3 -0.6 0 0.9 -2.1 3.3 -4.6 5.5 -5.7 14.9 -10.2 28.5 -13.8 5.5 -1.5 12.4 -3.8 15.4 -5.2 3 -1.3 5.7 -2.2 6 -1.9 0.3 0.3 0 2 -0.7 3.7 -0.6 1.8 -1 3.4 -0.7 3.6 0.2 0.2 2.9 -0.7 5.9 -2.1 l5.6 -2.6 0 3.8 c0 2.1 -0.8 6.2 -1.9 9.2 -3.2 9.4 -3.4 13.9 -1.1 22 1.4 4.7 2.4 11.7 2.7 19.2 0.5 10.5 0.8 11.7 2.4 11.7 1.1 0 1.9 0.5 1.9 1 0 0.6 3.6 1 8.8 1 l8.7 -0.1 -4.7 -4 c-4.2 -3.6 -4.8 -4.6 -4.8 -7.9 0 -2.5 0.5 -4 1.6 -4.4 2.7 -1 19.6 -0.6 25.9 0.7 5.9 1.3 6 1.3 6.3 4.9 0.2 2.8 -0.2 4.1 -2.2 6 l-2.5 2.3 12.7 -0.7 c7 -0.3 14.4 -0.6 16.5 -0.7 2.6 -0.1 4 -0.6 4.4 -1.9 0.4 -0.9 1 -1.9 1.4 -2.2 0.9 -0.6 6.9 -37.3 6.9 -42.3 0 -2.1 0.5 -8.1 1.2 -13.3 l1.1 -9.4 4.8 0 c6.3 0 9.4 3.5 10.5 11.7 0.8 6.3 -0.2 60.2 -1.2 64.4 -0.5 2.5 0 2.8 15.8 9.7 22.2 9.8 22.8 10.2 22.8 15.1 0 3.9 -0.1 4 -5.5 6 -8.4 3.2 -23.1 2.9 -42.7 -0.8 -8.5 -1.6 -17.9 -3.6 -20.8 -4.5 -6.6 -2 -7.1 -2 -6.4 -0.1 1.2 3 -47.7 24.7 -89.2 39.5 -42.2 15.1 -95.9 28.5 -130.5 32.5 l-5.6 0.7 -0.7 9.2 c-1.1 16.8 -5.2 27.2 -12.9 32.7 -3.5 2.5 -4.9 2.9 -10.7 2.9 -3.7 0 -6.9 -0.2 -7.1 -0.4z m-3.6 -6.5 c0.2 -1.1 0.1 -3.5 -0.3 -5.3 -0.6 -3.1 -0.7 -3 -1.1 2 -0.4 5.1 0.4 7 1.4 3.3z m-59.3 -58.4 c0 -0.2 -1.5 -1.6 -3.2 -3.3 l-3.3 -2.9 2.9 3.3 c2.8 3 3.6 3.7 3.6 2.9z m41 -36 c0 -0.2 -1.7 -1.9 -3.7 -3.8 l-3.8 -3.4 3.4 3.8 c3.3 3.4 4.1 4.2 4.1 3.4z m177.3 -20.4 c0.3 -0.5 -2.5 -0.7 -6.1 -0.5 -11.6 0.5 -13 0.9 -3.5 1 5 0.1 9.4 -0.1 9.6 -0.5z m83.7 -23.7 c0 -0.8 -6.1 -1.2 -6.6 -0.4 -0.3 0.4 1.1 0.8 3 0.8 2 0 3.6 -0.2 3.6 -0.4z m18.8 -1.3 c-1.6 -0.2 -4 -0.2 -5.5 0 -1.6 0.2 -0.3 0.4 2.7 0.4 3 0 4.3 -0.2 2.8 -0.4z"/>
  <path d="M183.8 114.3 c-2.2 -0.5 -2.4 -2.3 -0.3 -2.3 2.1 0 1.9 -0.7 -1 -4.2 -1.6 -1.9 -2.5 -4.2 -2.5 -6.4 0 -8.3 5.4 -12.6 22.7 -18 5.8 -1.8 11.2 -4.1 12 -5.1 1.4 -1.7 1.4 -1.7 1 0.5 -0.3 1.2 -0.2 2 0.3 1.7 0.4 -0.3 0.8 1.1 0.8 3.1 0 3.3 -0.4 3.8 -3.8 5.3 -3.4 1.4 -3.9 2.1 -4.4 6 -0.3 2.4 -0.6 5.9 -0.6 7.7 0 1.9 -0.4 3.4 -1 3.4 -0.5 0 -1 0.6 -1 1.4 0 0.8 -1.4 1.6 -3.2 1.8 -1.8 0.3 -4.1 0.9 -5.2 1.3 -1.6 0.7 -1.7 0.6 -0.7 -1.3 0.8 -1.5 0.8 -2.2 0.1 -2.2 -0.5 0 -1 0.7 -1 1.5 0 0.7 -0.8 1.9 -1.7 2.5 -1.7 1.1 -1.7 1.1 0.1 0.6 1.4 -0.5 1.7 -0.2 1.2 1 -0.3 0.8 -0.6 1.8 -0.6 2 0 0.5 -9 0.3 -11.2 -0.3z"/>
 </g>
 <g fill="#e5edec">
  <path d="M52.2 252.8 c-9 -1.5 -21.6 -11.5 -28.7 -22.8 -4.1 -6.5 -8.9 -18.2 -11.6 -28.5 -2 -7.8 -2.3 -11.4 -2.4 -27 0 -14.7 0.3 -19.1 1.8 -23.9 2.6 -8.3 7 -16.7 11 -20.9 2.8 -3.1 3.1 -3.8 2 -5 -1.2 -1.1 -0.8 -1.6 2.3 -3.3 3.3 -1.7 3.7 -1.8 4.7 -0.3 0.8 1.3 1.7 1.5 4.6 0.7 7.2 -2 17.2 1.4 24.8 8.5 4 3.7 5.2 4.4 6.7 3.5 1.3 -0.8 2.2 -0.6 3.4 0.6 1.4 1.4 1.4 1.7 -0.1 3.4 -1.4 1.6 -1.5 2.1 -0.4 3 0.7 0.6 2.6 3.8 4.3 7.2 1.6 3.3 3.3 6 3.7 6 0.5 0 0.6 0.4 0.2 0.9 -0.3 0.5 -0.1 1.2 0.5 1.6 0.6 0.4 0.7 1.1 0.4 1.7 -0.4 0.7 -0.2 0.8 0.4 0.4 1.7 -1 5.9 6 7.6 12.5 4.1 16.2 4.6 36 0.9 43.9 -1.2 2.5 -2.5 6.1 -2.9 8 l-0.7 3.5 -1.4 -5 c-0.8 -2.9 -1.6 -10.9 -1.8 -19 -0.2 -7.7 -1 -16.7 -1.7 -20 -1.4 -5.9 -1.4 -6 -5.1 -6.3 -3.7 -0.3 -3.9 -0.6 -7.1 -7.6 -1.8 -3.9 -4.7 -8.8 -6.5 -10.8 -2.8 -3.2 -3 -3.8 -1.5 -4.6 1.3 -0.7 1.4 -1.3 0.5 -3 -1.8 -3.3 -1.4 -3.4 3.6 -0.7 4.7 2.5 8.3 3.2 8.3 1.8 0 -0.5 -1.4 -3.2 -3 -6.1 -2.7 -4.7 -3.3 -5.1 -5.1 -4.1 -1.5 0.8 -2.4 0.7 -3.6 -0.2 -1.3 -1.2 -1.3 -1.4 0.3 -2.6 1.7 -1.2 1.6 -1.5 -1.6 -4.8 -5.3 -5.5 -12.3 -8.5 -19.4 -8.5 -6 0.1 -6 0.1 -3.1 1.5 1.7 0.7 2.4 1.4 1.6 1.4 -1.8 0.1 1.6 2.7 10.7 8.1 4.9 2.9 7.2 4.8 7.2 6.1 0 1.1 0.7 1.9 1.7 1.9 1.1 0 0.6 1 -2 3.5 -4.5 4.4 -8.3 12.2 -10 20.5 l-1.3 6.5 -3.9 0.3 c-3.2 0.2 -3.6 0 -2.2 -0.8 2.5 -1.6 2.2 -2.7 -2.9 -11.4 -5.3 -8.8 -13.3 -17.6 -16.2 -17.6 -5.7 0 -6.9 8.6 -2.3 16.5 3.9 6.8 15.4 17.8 16.9 16.3 2.3 -2.3 1.3 4 -1.3 7.8 -2.7 4 -3 5.6 -1.5 8.4 1.4 2.6 9 7 14.6 8.4 4.4 1.1 4.8 1.5 6.6 6.4 2.5 6.6 11 16 17.5 19.3 2.6 1.3 5.1 2.9 5.5 3.4 0.4 0.6 0.8 0.6 0.8 0.1 0 -0.5 0.6 -0.3 1.4 0.3 1 0.8 1.6 0.9 2.1 0.1 0.8 -1.2 3.5 -1.3 5.4 -0.1 0.8 0.5 1.1 1.6 0.6 3.1 -0.5 1.7 -1.3 2.1 -3.1 1.7 -1.3 -0.2 -2.4 -0.1 -2.4 0.3 0 0.4 -1.5 2.7 -3.4 5.1 -6.5 8.6 -15.1 12.4 -24.4 10.7z m-15.3 -28 c-3 -2.9 -6.5 -7.7 -7.8 -10.5 -2.6 -5.6 -4.8 -7.1 -3.6 -2.5 1.9 8.2 10.1 18.2 14.8 18.2 1.5 0 0.7 -1.2 -3.4 -5.2z m2.4 -9 c-1.1 -1.3 -2.8 -3.8 -3.7 -5.5 -1.7 -3.3 -4.4 -4.7 -3.2 -1.7 0.3 0.9 0.6 2 0.6 2.6 0 1.3 5.9 6.8 7.3 6.8 0.6 0 0.1 -1 -1 -2.2z m45.4 -20 c-0.2 -2.9 -0.3 -0.8 -0.3 4.7 0 5.5 0.1 7.9 0.3 5.3 0.2 -2.6 0.2 -7.1 0 -10z"/>
  <path d="M104 234.2 c0 -2.1 1.2 -4.8 3.5 -7.8 6.6 -8.6 9.6 -18.8 9.6 -32.1 0 -7.5 0.3 -9.3 1.4 -9.3 0.8 0 1.5 0.7 1.5 1.5 0 2 1.2 1.9 18.4 -1 52.6 -9.1 101 -23.3 153.1 -45 17.9 -7.5 40.3 -17.8 46.4 -21.3 4 -2.3 4.2 -2.6 2.5 -3.9 -1.6 -1.2 -1.4 -1.3 1.7 -1.3 1.9 0 7 1.1 11.4 2.4 l8 2.3 0 3.9 c0 3.7 -0.5 4.3 -8.5 10.7 -11.8 9.5 -35.1 26.5 -49.9 36.4 -14.5 9.7 -15.6 9.9 -26.3 4.7 -7.3 -3.5 -7.3 -3.5 -17.3 -2.9 -20 1.3 -37.8 5.7 -53 12.9 -10 4.8 -16.1 9.6 -19 14.9 -1.8 3.5 -1.8 3.7 -0.1 5.6 1.8 2 13.4 7.3 18.9 8.6 2.3 0.6 2.7 1.2 2.7 4.1 l0 3.3 -11.2 3.6 c-23.8 7.7 -44.2 11 -74.6 12.1 l-19.2 0.7 0 -3.1z m27.3 -0.9 c-1.3 -0.2 -3.3 -0.2 -4.5 0 -1.3 0.2 -0.3 0.4 2.2 0.4 2.5 0 3.5 -0.2 2.3 -0.4z m-10.6 -39.5 c-0.2 -1.3 -0.4 -0.3 -0.4 2.2 0 2.5 0.2 3.5 0.4 2.3 0.2 -1.3 0.2 -3.3 0 -4.5z m68.9 -3 l2.9 -3.3 -3.2 2.9 c-3.1 2.8 -3.8 3.6 -3 3.6 0.2 0 1.6 -1.5 3.3 -3.2z m75.2 -22.5 c-1.5 -0.2 -4.2 -0.2 -6 0 -1.8 0.2 -0.6 0.4 2.7 0.4 3.3 0 4.8 -0.2 3.3 -0.4z"/>
  <path d="M197.6 146.2 c-1.4 -2.8 -3.8 -5.9 -5.2 -6.9 -5.8 -4 -6.4 -5 -6.4 -11.1 0 -3.2 0.7 -8.2 1.5 -11 1.4 -4.7 1.8 -5.2 4.5 -5.2 1.9 0 3.4 -0.7 4.2 -2 0.7 -1.1 2.3 -2 3.6 -2 1.3 0 2.5 -0.8 2.9 -1.7 0.3 -1 1.2 -2.5 2 -3.4 1.1 -1.3 1.1 -2.2 0.2 -4.2 -0.9 -2.1 -0.9 -3 0.1 -4.2 1.1 -1.3 1 -1.9 -0.4 -3.3 -1.5 -1.7 -1.3 -2 3.8 -4.1 4.6 -1.9 5.3 -2.6 5.3 -4.9 0 -1.5 0.4 -3.7 0.8 -4.9 0.6 -1.8 0.3 -2.3 -0.9 -2.3 -0.9 0 -1.6 -0.7 -1.6 -1.6 0 -1.4 0.9 -1.5 6.3 -1 8.6 1 10.2 -0.8 11 -11.7 0.8 -11.9 4.1 -15.3 15 -15.6 6.6 -0.2 10.6 1.5 13.9 5.9 1.2 1.7 2.8 3 3.5 3 0.7 0 1.3 1.1 1.3 2.4 0 1.3 0.7 2.9 1.5 3.6 1 0.9 1.5 3.2 1.5 7.5 0 8.5 -2.3 11.8 -12.2 17 -4.2 2.2 -7.9 4.2 -8.2 4.5 -0.2 0.3 4.2 0.5 9.9 0.5 10.2 0 13.3 0.8 10.5 2.5 -4.5 2.7 -7.7 6.2 -12.6 13.6 l-5.4 8.2 -8.7 0.1 c-4.9 0 -11.8 0.4 -15.5 0.7 -5.8 0.6 -6.8 0.4 -6.8 -0.9 0 -5.5 -17.8 -6.6 -21.2 -1.3 -0.4 0.5 -0.7 4.7 -0.7 9.3 0 11.3 1.6 12.7 13.4 12.1 5.1 -0.3 6.1 -0.6 7.1 -2.7 1.2 -2.2 1.2 -2.2 1.8 -0.3 0.9 2.8 12.5 8 16.4 7.3 0.8 -0.1 1.2 1.1 1.2 3.4 0 2.7 -0.5 3.7 -2.2 4.4 -4.7 1.8 -17.5 4.3 -25 4.8 l-7.6 0.6 -2.6 -5.1z"/>
  <path d="M123.5 123 c-2.7 -1.1 -5.8 -1.9 -6.7 -2 -1.4 0 -1.8 -0.9 -1.8 -4.3 0 -7.8 9.7 -19 19 -21.8 2 -0.6 7.7 -1 12.6 -0.8 11 0.5 17.9 3.5 25.4 11.2 4.2 4.2 5 5.7 4.9 8.6 0 3 -0.2 3.3 -1.1 2 -1 -1.5 -2.3 -1.3 -13.7 1.8 -7.2 1.9 -16.4 3.6 -21.5 4 -8 0.6 -8.6 0.7 -6.5 1.9 2.3 1.3 2.2 1.3 -1.6 1.3 -2.2 -0.1 -6.2 -0.9 -9 -1.9z m22.3 -26.7 c-1 -0.2 -2.6 -0.2 -3.5 0 -1 0.3 -0.2 0.5 1.7 0.5 1.9 0 2.7 -0.2 1.8 -0.5z"/>
  <path d="M198.5 113.1 c-0.7 -1.2 3.4 -3.1 6.8 -3.1 3.6 0 9.7 2 9.7 3.2 0 0.6 -0.8 0.7 -2.2 0.3 -3 -1.1 -9.9 -1.1 -11.9 -0.1 -1 0.4 -2 0.3 -2.4 -0.3z"/>
  <path d="M319 88.8 c0 -1.4 1.5 -3.8 3.5 -5.8 5.2 -5 7.5 -9.5 16.4 -31.3 10.4 -25.5 13.1 -29.7 21.3 -33.2 5 -2 12.8 -2 12.8 0 0 0.8 -0.6 1.5 -1.4 1.5 -2.1 0 -2.6 2.4 -3 14.6 -0.5 14.6 -6.4 50.7 -8.2 50 -0.7 -0.3 -1.1 0 -0.9 0.7 1.1 3 -1.2 3.5 -19.8 4.1 -10.4 0.3 -19.3 0.9 -19.8 1.2 -0.5 0.3 -0.9 -0.5 -0.9 -1.8z"/>
  <path d="M209.5 64 c0.3 -0.5 1.4 -1 2.3 -1 1.2 0 1.3 -0.3 0.5 -0.8 -1 -0.6 -1 -1.3 0 -3.2 0.7 -1.4 1.8 -4.4 2.5 -6.7 0.7 -2.4 1.7 -4.3 2.3 -4.3 0.6 0 0.8 -0.4 0.5 -0.8 -0.7 -1.2 2.3 -5.2 3.9 -5.2 2.1 0 3.5 3.3 3.5 8.5 0 3.9 -0.4 4.7 -2.5 5.7 -1.8 0.8 -2.5 1.9 -2.5 3.9 0 1.8 -0.7 3.2 -1.9 3.9 -2.5 1.3 -9.4 1.3 -8.6 0z"/>
 </g>
 <g fill="#1c2c54">
  <path d="M194.5 286 c-3.3 -1.3 -9.3 -8.6 -10.4 -12.7 -1.6 -5.6 -1.3 -11.3 0.8 -15.9 l1.8 -4.1 -5.3 -9.4 c-2.9 -5.2 -5.7 -9.9 -6.1 -10.6 -0.6 -0.8 -3.1 -0.7 -9.8 0.7 -4.9 1 -12 2.2 -15.7 2.6 -6 0.6 -6.8 0.9 -6.8 2.8 -0.1 5.7 -7.3 15.3 -13.3 17.5 -4 1.5 -11.3 1.4 -14.5 -0.3 -5.4 -2.8 -10.2 -10.1 -10.2 -15.4 l0 -2.9 -11.6 -0.6 c-6.4 -0.3 -11.8 -0.7 -12 -1 -0.3 -0.2 0 -1.5 0.6 -2.9 1.1 -2.3 1.3 -2.3 8.5 -1.4 7.1 0.9 7.6 0.8 11.5 -1.8 13.3 -8.8 17.6 -35.8 9.6 -61.1 -4.8 -15.1 -13.5 -26.7 -23.9 -31.6 -7.2 -3.4 -11 -3.6 -15.4 -1 -3 1.9 -3.2 1.9 -4.7 0.2 -0.9 -1 -1.6 -2 -1.6 -2.3 0 -0.9 13.4 -6.7 28.3 -12.1 l14.7 -5.4 -3.7 -1.2 c-12.4 -3.9 -41.8 -12.1 -47.1 -13.2 -9.4 -1.8 -28.5 -0.8 -34.5 1.9 -3.5 1.6 -4.7 2.6 -4.7 4.3 0 2.3 5.7 8.1 10.3 10.5 3.5 1.8 3.4 2.5 -0.5 4.7 l-3.1 1.8 -5.4 -5.3 c-11.2 -11.1 -8.8 -18.1 7.7 -22.4 4.9 -1.2 9.3 -1.5 19 -1.1 13.8 0.5 19.6 1.8 49.2 11.1 9.5 3 17.3 5.4 17.4 5.3 0.1 -0.1 1.7 -2.8 3.7 -5.9 6.4 -10.1 17.5 -16.8 27.8 -16.8 10.4 0 25.6 8.3 31.9 17.5 2.6 3.8 3.5 4.5 5.3 3.9 2.3 -0.8 3.5 -0.9 7.9 -0.6 l2.7 0.2 -1.4 3.9 c-1.8 5.3 -2.9 12.6 -2.1 15.5 0.3 1.3 1.8 2.9 3.6 3.6 2.9 1.2 9 9.1 9 11.7 0 1.8 4.3 1.6 17.5 -1 10.1 -2 11.1 -2.4 12.3 -5 1 -2 1.9 -2.7 3 -2.2 0.8 0.3 5 1 9.1 1.6 4.2 0.6 7.7 1.2 7.8 1.3 0.6 0.6 -21 6.8 -29.7 8.6 -13.5 2.8 -24.3 3.4 -34.2 2.1 -14.2 -1.9 -24 -5.8 -42 -16.7 -11.4 -7 -23.8 -12.4 -29.9 -13.1 -3.7 -0.4 -6.6 0.2 -16 3.7 -6.3 2.3 -12.2 4.4 -13.2 4.7 -1.3 0.4 -0.5 1.1 3.2 2.8 9.1 4.3 16 12 22.6 25.4 5.3 10.7 7.5 20.9 7.5 34.8 0 17.4 -3.8 29.8 -11.7 37.7 l-2.8 2.9 18.5 -0.6 c21 -0.7 35.2 -2.5 50.8 -6.2 11.2 -2.7 29.1 -8.2 30.5 -9.5 0.4 -0.4 -3.4 -2.2 -8.5 -4 -10.4 -3.7 -13.8 -6.4 -13.8 -11 0 -4.4 2.2 -8.1 7.8 -13.1 13.1 -11.7 42.7 -20.5 70.8 -21 11.5 -0.2 12.1 -0.1 18.5 2.9 3.7 1.8 7 3.2 7.4 3.2 3.6 0 72.5 -50.6 71.8 -52.7 -0.1 -0.4 -3.8 -1.7 -8.3 -3 -12.3 -3.5 -15.5 -6.3 -12.5 -10.9 3.2 -4.9 18.1 -11.2 32.2 -13.5 6.8 -1.1 7.1 -1.3 7.7 -4.3 1 -5.4 1.9 -52.9 1.2 -58.9 -1 -7.8 -4.2 -11.7 -9.7 -11.7 -5.6 0 -9.8 2 -14.1 6.8 -4.6 5.1 -6.9 9.7 -14.8 29.2 -3.4 8.5 -7.6 18.1 -9.3 21.3 -3.8 7.2 -10.5 13.3 -15.5 14.2 -6.9 1.1 -32.7 2.3 -33.5 1.5 -0.5 -0.4 -0.7 -1.6 -0.5 -2.6 0.3 -1.7 1.5 -1.9 9.1 -2.2 l8.7 -0.3 -4 -3.8 c-9.5 -9 -1 -14.8 18.1 -12.2 4.8 0.6 10 1.4 11.6 1.7 l2.9 0.6 6.4 -15.9 c11.4 -28.7 16.1 -36.2 25.2 -40.7 7.5 -3.7 13.6 -3.6 18.2 0.4 1.9 1.7 4 4.6 4.6 6.5 1.4 4.2 1.8 38.1 0.7 57 l-0.9 14.1 14 6.2 c7.7 3.5 16.4 7.8 19.3 9.5 4.9 2.9 5.4 3.6 5.4 6.7 0 3.3 -0.4 3.7 -6 6.5 -5.8 2.9 -6.5 3 -19 2.9 -9.1 -0.1 -15.7 -0.7 -22 -2.1 l-9 -2.1 -4.9 4.5 c-9.7 8.7 -55.2 42.1 -65.3 47.8 l-3.2 1.9 22.2 11.6 c38.6 20.2 64 35.5 72.9 43.8 9 8.4 10 13.3 4 19.2 -4.2 4.2 -10 6.4 -22.1 8.2 -18.3 2.7 -48.2 -4.4 -119.1 -28.2 l-35.5 -12 -5.7 2.2 -5.8 2.1 0 5.7 c0 3.2 -0.3 7.1 -0.6 8.7 -0.6 2.9 -0.4 3 3.6 3.7 12.2 1.9 19.3 12.4 16.9 25 -2.2 11.7 -10.7 19.7 -20.8 19.5 -3.1 0 -6.5 -0.4 -7.6 -0.9z m16.4 -14.6 c2.6 -3.3 2.9 -10.5 0.5 -12.8 -1.6 -1.7 -5 -2.1 -7.9 -1 -4 1.6 -5.9 11.2 -2.8 14.6 2.5 2.8 7.7 2.4 10.2 -0.8z m163.4 -17.9 c9.4 -0.9 15.7 -4.4 15.7 -8.5 0 -8.3 -32 -28.6 -96.3 -61.4 l-20.9 -10.6 -7.8 0 c-19.5 0 -43.4 5.1 -58.8 12.6 -8.6 4.1 -18.2 11.6 -18.2 14.1 0 1.3 -1.3 0.8 38 14.9 82.7 29.6 124.9 41.6 140.5 39.8 1.1 -0.2 4.6 -0.5 7.8 -0.9z m-180.8 -7.5 c3.2 -2 3.3 -2.3 4 -10.6 0.4 -4.7 0.5 -8.7 0.2 -9 -0.6 -0.7 -16.2 3.9 -16.7 5 -0.4 0.8 8.1 16.6 8.9 16.6 0.2 0 1.8 -0.9 3.6 -2z m-8 -108.2 c-3.9 -12.2 -10.1 -23.3 -16.5 -29.8 -6.1 -6.3 -11.9 -9.4 -20.2 -11.1 -10.7 -2.2 -21.3 3.4 -28.8 15.1 -1.8 2.8 -3.1 5.2 -2.9 5.3 0.2 0.2 3 1.1 6.3 2.1 6.6 2 19.1 8.4 28.1 14.3 7.2 4.8 15.5 8.5 25 11.2 9 2.5 10.9 2.8 11.3 1.9 0.2 -0.4 -0.8 -4.5 -2.3 -9z m226 -16.9 c3 -1.1 5.5 -2.5 5.5 -2.9 0 -1.6 -4.5 -4 -21.6 -11.6 -9.1 -4.1 -17.8 -7.4 -19.3 -7.4 -7.4 0 -30.7 7.8 -32.6 11 -0.4 0.7 -0.2 1.6 0.6 2.1 2.7 1.8 15.5 5.1 29.8 7.9 18.3 3.5 29.8 3.8 37.6 0.9z m-94.3 -34.8 c3.2 -1.3 8.1 -6.2 7.1 -7.1 -2.4 -2.1 -21.7 -3.9 -25.7 -2.4 -2.5 1 -1.9 2.1 3.5 6.4 5.3 4.2 9.9 5.1 15.1 3.1z"/>
  <path d="M87.8 205.7 c0.5 -13.5 -1.5 -28 -5.6 -40.3 -2.2 -6.7 -2.5 -8 -1.1 -6.8 0.9 0.8 3 4.1 4.7 7.2 8 15.2 9.1 33.4 3 48 -1.3 2.9 -1.4 2.2 -1 -8.1z"/>
  <path d="M48.4 208.3 c-0.6 -1 -3.6 -2.6 -6.7 -3.5 -18.8 -5.8 -20.3 -16.9 -4 -30.5 3.7 -3 5.7 -5.4 5.5 -6.5 -0.2 -0.9 0.6 -2.2 1.8 -2.8 2 -1.1 2.1 -1 1.5 0.9 -0.8 2.7 0.9 2.7 3.5 0.1 2.8 -2.8 6.4 -2.5 10.3 1 5.3 4.6 8 11.9 8.1 22 0.1 7.6 -0.1 8.5 -1.6 8.2 -1 -0.2 -1.8 0.3 -1.8 1.1 0 0.8 -1.1 3.1 -2.5 5.1 -1.4 2 -2.5 4.3 -2.5 5.1 0 1.9 -2.4 1.9 -4 0 -0.7 -0.8 -1.9 -1.5 -2.6 -1.5 -0.8 0 -1.4 0.7 -1.4 1.5 0 2.1 -2.3 1.9 -3.6 -0.2z m11.5 -9.4 c2.9 -8.3 -0.3 -22.3 -6 -26.2 -2.1 -1.5 -2.5 -1.5 -6.3 0.6 -2.3 1.2 -6.9 5 -10.3 8.4 -6.8 6.6 -7.7 9.3 -4.5 13.2 2.5 3.1 13.6 7 20.4 7 5.4 0.1 5.6 0 6.7 -3z"/>
  <path d="M280.8 120.8 c1.9 -5.8 2.3 -8.8 2 -15 -0.3 -8.5 0.3 -9.2 4 -3.8 4.2 6.2 2.1 16.1 -5 22.8 l-3.5 3.3 2.5 -7.3z"/>
  <path d="M199.4 113.6 c-1.8 -1.4 -1.8 -1.5 0.9 -2.5 3.5 -1.4 6.2 -1.4 11 0 6.6 1.8 4.1 3.9 -4.7 3.9 -2.9 0 -6.1 -0.6 -7.2 -1.4z"/>
  <path d="M244 113.2 c0 -2 8.2 -12.1 12.6 -15.5 5.3 -4.1 8.2 -5.1 3.6 -1.2 -1.6 1.4 -4.5 5.5 -6.3 9.2 -1.9 3.8 -3.8 7.1 -4.4 7.5 -1.4 1 -5.5 1 -5.5 0z"/>
  <path d="M215.2 91.4 c-1.5 -7.2 -1.9 -11.2 -1.2 -12.3 0.7 -1.2 0.9 -1.3 1 -0.2 0 0.8 1.4 4.5 3.2 8.3 2.4 5.3 3.5 6.7 4.7 6.2 0.9 -0.4 6.3 -2.1 12.1 -3.9 12.9 -3.9 15.7 -5.3 22 -11.2 7.9 -7.3 8.6 -14.9 1.7 -17.3 -2.8 -0.9 -3.3 -0.7 -5.8 2 -4.7 5.1 -11 3.2 -10.8 -3.3 0 -1.8 0.3 -2.6 0.6 -1.9 0.6 1.6 4 1.5 4.6 -0.2 1.6 -4 -5.7 -4.8 -10.1 -1.1 -1.7 1.4 -3.5 2.5 -4.1 2.5 -1.6 0 -1.3 6.1 0.3 8.3 1.3 1.7 1 2.2 -2.4 5.3 -2.9 2.6 -4.6 3.4 -7.6 3.4 -3.7 0 -21.5 -2.8 -22.2 -3.5 -1 -0.9 6.4 -7.5 11.3 -10 3.1 -1.6 5.1 -3.1 4.5 -3.3 -0.5 -0.2 -1 -2 -0.9 -4 0 -2 0.3 -3.1 0.6 -2.4 0.7 1.9 2.3 1.4 2.3 -0.8 0 -1 -0.8 -2.4 -1.7 -2.9 -1.7 -1 -1.7 -1 0 -1.1 1.1 0 2.3 1.3 3.2 3.2 l1.3 3.3 0.7 -3.8 c0.4 -2 0.5 -5 0.2 -6.4 -0.5 -2.6 -0.4 -2.7 1 -0.8 0.9 1.3 1.3 3.8 1.1 7.2 -0.4 6.9 1.7 7.5 5.4 1.6 1.5 -2.3 4 -4.9 5.7 -5.7 3.9 -2.1 6.5 -2 2.8 0 -3.3 1.8 -7.3 9.4 -5.5 10.5 0.6 0.4 2.2 -0.6 3.5 -2.2 4.6 -5.5 15 -4.5 17.3 1.7 1.3 3.2 5.3 3.1 5.8 -0.2 0.2 -1.4 1.2 -2.4 3 -2.7 4.3 -1 8.9 -4.3 12.2 -8.8 2.1 -3 3 -3.7 3 -2.3 0 2.8 -2.5 12.6 -3.6 14.7 -0.9 1.5 -0.4 2.5 2.4 5.3 l3.4 3.4 -3.3 2.8 c-1.9 1.5 -4.9 4.1 -6.8 5.9 -1.9 1.8 -8 5.5 -13.5 8.4 -5.6 2.8 -10.5 5.4 -11.1 5.8 -0.5 0.4 -3 1.3 -5.5 2 -5.3 1.6 -15.2 6.1 -19.6 9 l-3.1 2.1 -2.1 -10.6z"/>
  <path d="M199.5 93.4 c-1.6 -1.3 -2.5 -2.4 -1.9 -2.4 1.5 0 6.1 3.7 5.4 4.3 -0.3 0.3 -1.8 -0.6 -3.5 -1.9z"/>
  <path d="M360 84 c0 -0.6 1.1 -7.7 2.5 -15.8 1.3 -8.1 2.9 -18.4 3.6 -22.9 0.6 -4.6 1.5 -8.3 2 -8.3 0.5 0 0.9 0.7 0.9 1.6 0 4.3 -7.4 46.4 -8.1 46.4 -0.5 0 -0.9 -0.5 -0.9 -1z"/>
 </g>
 <g fill="#6c829e">
  <path d="M357.8 260.3 c1.7 -0.2 4.7 -0.2 6.5 0 1.7 0.2 0.3 0.4 -3.3 0.4 -3.6 0 -5 -0.2 -3.2 -0.4z"/>
  <path d="M358.8 254.3 c1.2 -0.2 3 -0.2 4 0 0.9 0.3 -0.1 0.5 -2.3 0.4 -2.2 0 -3 -0.2 -1.7 -0.4z"/>
  <path d="M367.8 254.3 c1.2 -0.2 3 -0.2 4 0 0.9 0.3 -0.1 0.5 -2.3 0.4 -2.2 0 -3 -0.2 -1.7 -0.4z"/>
  <path d="M197 239.7 l0.5 -5.2 0.3 4.4 c0.2 2.4 0 4.7 -0.5 5.2 -0.4 0.4 -0.6 -1.5 -0.3 -4.4z"/>
  <path d="M385.4 237.8 l-2.9 -3.3 3.3 2.9 c3 2.8 3.7 3.6 2.9 3.6 -0.2 0 -1.6 -1.5 -3.3 -3.2z"/>
  <path d="M68.3 231.6 c-7.1 -3.3 -13.6 -10.2 -17.6 -18.4 -3.2 -6.6 -3.3 -6.8 -1.2 -6.4 1.4 0.2 2.6 1.6 3.4 3.8 1.8 4.9 11.1 14.6 16.8 17.5 2.6 1.3 5.1 2.8 5.4 3.2 0.3 0.5 1 0.8 1.5 0.7 0.5 -0.1 1 0.3 1.2 0.9 0.6 1.9 -4.1 1.2 -9.5 -1.3z"/>
  <path d="M61.4 215.8 c-1.7 -1.8 -3.8 -4.5 -4.7 -5.9 -1.6 -2.6 -1.5 -2.7 0.8 -3.2 1.9 -0.3 2.5 0 2.5 1.2 0 1 1.3 3.8 3 6.4 3.4 5.5 2.7 6.1 -1.6 1.5z"/>
  <path d="M80.3 213 c-1.3 -2.6 -5.1 -7.4 -8.5 -10.7 l-6.3 -6 -0.1 -6.4 c-0.1 -4.3 -0.9 -8.1 -2.4 -11.7 -2.4 -5.6 -7.9 -11.2 -11 -11.2 -1.7 0 -1.8 -0.3 -0.8 -3.2 1.6 -4.6 4.8 -8.7 8 -10.4 2.6 -1.4 2.8 -1.3 5.8 3.1 1.7 2.4 4.5 7.5 6.2 11.2 2.8 6.1 3.2 6.5 3.6 4 0.5 -3.8 -2.3 -11.7 -6 -16.8 -2.1 -2.9 -2.5 -4 -1.3 -3.6 0.9 0.4 2.5 0.7 3.5 0.7 1.3 0 2.7 2.3 5.4 8.6 5.1 12.3 7.6 25.8 7.5 41.3 -0.1 15.6 -0.6 17.3 -3.6 11.1z m-12.3 -42.4 c0 -1.8 -4.1 -9.4 -5.3 -9.9 -2.7 -1 -2.6 0.4 0.5 5.4 2.6 4.1 4.8 6.2 4.8 4.5z"/>
  <path d="M53.3 202.3 c0.9 -0.2 2.5 -0.2 3.5 0 0.9 0.3 0.1 0.5 -1.8 0.5 -1.9 0 -2.7 -0.2 -1.7 -0.5z"/>
  <path d="M92.3 194 c0 -3.6 0.2 -5 0.4 -3.2 0.2 1.7 0.2 4.7 0 6.5 -0.2 1.7 -0.4 0.3 -0.4 -3.3z"/>
  <path d="M43.4 168.5 c-1.5 -3.8 2.6 -15.4 7.6 -21.6 l2.8 -3.6 -6.1 -3.6 c-3.4 -2 -8.9 -5.4 -12.1 -7.6 l-5.9 -4 2.6 -1.2 c3.3 -1.5 5.8 -0.5 17.5 6.8 7.3 4.6 9 5.3 10.8 4.4 1.7 -0.8 2.6 -0.6 3.6 0.6 1 1.3 1 1.7 0 2 -2.2 0.8 -9.6 7.5 -11.8 10.7 -2.4 3.5 -6.6 15.5 -5.9 16.6 0.3 0.4 -0.2 1.1 -1 1.4 -0.9 0.3 -1.8 -0.1 -2.1 -0.9z"/>
  <path d="M194.8 152.3 c2.3 -0.2 5.9 -0.2 8 0 2 0.2 0.1 0.4 -4.3 0.4 -4.4 0 -6.1 -0.2 -3.7 -0.4z"/>
  <path d="M395.3 123.3 c1.5 -0.2 3.9 -0.2 5.5 0 1.5 0.2 0.2 0.4 -2.8 0.4 -3 0 -4.3 -0.2 -2.7 -0.4z"/>
  <path d="M203.8 110.3 c1.2 -0.2 3 -0.2 4 0 0.9 0.3 -0.1 0.5 -2.3 0.4 -2.2 0 -3 -0.2 -1.7 -0.4z"/>
  <path d="M283.2 107 c0 -1.9 0.2 -2.7 0.5 -1.7 0.2 0.9 0.2 2.5 0 3.5 -0.3 0.9 -0.5 0.1 -0.5 -1.8z"/>
  <path d="M40.7 101.3 c1.8 -0.2 5 -0.2 7 0 2.1 0.2 0.7 0.4 -3.2 0.4 -3.8 0 -5.5 -0.2 -3.8 -0.4z"/>
  <path d="M282.4 92.5 c-1.2 -3 0.4 -4.5 4.3 -4.3 l3.8 0.1 -3.7 0.4 c-2.9 0.3 -3.8 0.9 -3.8 2.3 0 1.1 0.9 2 2.3 2.3 l2.2 0.4 -2.3 0.2 c-1.2 0 -2.5 -0.6 -2.8 -1.4z"/>
  <path d="M300.8 92.3 c1.2 -0.2 3 -0.2 4 0 0.9 0.3 -0.1 0.5 -2.3 0.4 -2.2 0 -3 -0.2 -1.7 -0.4z"/>
  <path d="M142.3 91.3 c1.5 -0.2 3.9 -0.2 5.5 0 1.5 0.2 0.2 0.4 -2.8 0.4 -3 0 -4.3 -0.2 -2.7 -0.4z"/>
  <path d="M379.2 77 c0 -1.9 0.2 -2.7 0.5 -1.7 0.2 0.9 0.2 2.5 0 3.5 -0.3 0.9 -0.5 0.1 -0.5 -1.8z"/>
  <path d="M303.8 75.3 c1.2 -0.2 3.2 -0.2 4.5 0 1.2 0.2 0.2 0.4 -2.3 0.4 -2.5 0 -3.5 -0.2 -2.2 -0.4z"/>
  <path d="M384.4 54 c0 -7.4 0.1 -10.5 0.3 -6.7 0.2 3.7 0.2 9.7 0 13.5 -0.2 3.7 -0.3 0.6 -0.3 -6.8z"/>
  <path d="M380.4 51 c0 -5.2 0.1 -7.4 0.3 -4.7 0.2 2.6 0.2 6.8 0 9.5 -0.2 2.6 -0.3 0.4 -0.3 -4.8z"/>
 </g>
  </g>
</svg>
